<svg width="38" height="38" viewBox="0 0 38 38" fill="none" xmlns="http://www.w3.org/2000/svg">
    <path d="M36.0049 25.6663L20.1133 16.4571V15.7719C20.1133 14.9906 20.5592 14.2637 21.277 13.8751C22.8943 12.9997 23.8556 11.3135 23.7858 9.4747C23.6914 6.98904 21.6707 4.96791 19.1855 4.87358C17.8705 4.82311 16.6252 5.29782 15.6789 6.2087C14.7321 7.12026 14.2106 8.34605 14.2106 9.66017C14.2106 10.275 14.709 10.7735 15.3239 10.7735C15.9387 10.7735 16.4372 10.275 16.4372 9.66017C16.4372 8.95673 16.7163 8.30071 17.2231 7.81272C17.7294 7.3254 18.3955 7.07105 19.101 7.09851C20.4299 7.14898 21.5104 8.22983 21.5609 9.55916C21.5983 10.5446 21.0834 11.448 20.2172 11.917C18.7797 12.6951 17.8867 14.1722 17.8867 15.7719V16.4571L1.99507 25.6663C0.764453 26.3794 0 27.7062 0 29.1286C0 31.3351 1.79476 33.1301 4.00084 33.1301H33.9992C36.2052 33.1301 38 31.3349 38 29.1286C38 27.7061 37.2355 26.3794 36.0049 25.6663ZM33.9992 30.9035H4.00084C3.02248 30.9035 2.22656 30.1072 2.22656 29.1286C2.22656 28.4976 2.56559 27.9091 3.11147 27.5928L19 18.3855L34.8885 27.5928C35.4343 27.9092 35.7734 28.4976 35.7734 29.1286C35.7734 30.1073 34.9775 30.9035 33.9992 30.9035Z" fill="white"/>
    <defs>
        <clipPath id="clip0">
            <rect width="38" height="38" fill="white"/>
        </clipPath>
    </defs>
</svg>
