<svg width="38" height="38" viewBox="0 0 38 38" fill="none" xmlns="http://www.w3.org/2000/svg">
    <path d="M36.8867 20.1875C35.1556 20.1875 25.0419 20.1875 23.4573 20.1875C23.8498 19.4896 24.1422 18.7415 24.3282 17.9609H27.9062C28.5211 17.9609 29.0195 17.4625 29.0195 16.8477V12.3945C29.0195 11.7797 28.5211 11.2812 27.9062 11.2812H24.5664V10.0195C24.5664 9.4047 24.068 8.90625 23.4531 8.90625H14.5469C13.932 8.90625 13.4336 9.4047 13.4336 10.0195V15.9254C13.4336 17.4425 13.8189 18.9003 14.5427 20.1875C12.9581 20.1875 2.84651 20.1875 1.11328 20.1875C0.498453 20.1875 0 20.686 0 21.3008C0 21.9156 0.498453 22.4141 1.11328 22.4141H8.55468C5.99368 25.0809 4.52734 28.651 4.52734 32.4336V36.8867C4.52734 37.5015 5.0258 38 5.64062 38H10.0938C10.7086 38 11.207 37.5015 11.207 36.8867V33.5469H26.793V36.8867C26.793 37.5015 27.2914 38 27.9062 38H32.3594C32.9742 38 33.4727 37.5015 33.4727 36.8867V32.4336C33.4727 28.651 32.0063 25.0809 29.4453 22.4141H36.8867C37.5015 22.4141 38 21.9156 38 21.3008C38 20.686 37.5015 20.1875 36.8867 20.1875ZM26.793 13.5078V15.7344H24.5664V13.5078H26.793ZM15.6602 15.9254V11.1328H22.3398V15.9254C22.3398 17.509 21.7763 19.0061 20.7442 20.1875H17.2558C16.2237 19.0061 15.6602 17.509 15.6602 15.9254ZM11.2905 31.3203C11.5413 29.6465 12.351 28.0787 13.605 26.8672H24.395C25.649 28.0787 26.4586 29.6465 26.7094 31.3203H11.2905ZM31.2461 32.4336V35.7734H29.0195V32.4336C29.0195 29.5759 27.7589 26.8357 25.5606 24.9155C25.3579 24.7383 25.0976 24.6406 24.8283 24.6406H13.1718C12.9024 24.6406 12.6421 24.7383 12.4394 24.9155C10.2411 26.8357 8.98047 29.5759 8.98047 32.4336V35.7734H6.75391V32.4336C6.75391 28.4322 8.69354 24.7117 11.9582 22.4141H26.0418C29.3065 24.7117 31.2461 28.4322 31.2461 32.4336Z" fill="white"/>
    <path d="M29.0195 1.11328C29.0195 1.72714 28.5201 2.22656 27.9062 2.22656H21.2266C19.385 2.22656 17.8867 3.72482 17.8867 5.56641C17.8867 6.18123 18.3852 6.67969 19 6.67969C19.6148 6.67969 20.1133 6.18123 20.1133 5.56641C20.1133 4.95254 20.6127 4.45312 21.2266 4.45312H27.9062C29.7478 4.45312 31.2461 2.95487 31.2461 1.11328C31.2461 0.498453 30.7476 0 30.1328 0C29.518 0 29.0195 0.498453 29.0195 1.11328Z" fill="white"/>
</svg>
