<svg width="38" height="38" viewBox="0 0 38 38" fill="none" xmlns="http://www.w3.org/2000/svg">
    <path d="M36.8867 6.08594H22.043C21.4281 6.08594 20.9297 6.58439 20.9297 7.19922V17.9609H1.11328C0.498453 17.9609 0 18.4594 0 19.0742V36.8867C0 37.5015 0.498453 38 1.11328 38H36.8867C37.5015 38 38 37.5015 38 36.8867V7.19922C38 6.58439 37.5015 6.08594 36.8867 6.08594ZM23.1562 8.3125H35.7734V17.9609H23.1562V8.3125ZM2.22656 20.1875H20.9297V22.4141H2.22656V20.1875ZM2.22656 24.6406H14.9922V35.7734H2.22656V24.6406ZM17.2188 24.6406H20.9297V35.7734H17.2188V24.6406ZM23.1562 35.7734V20.1875H35.7734V35.7734H23.1562Z" fill="white"/>
    <path d="M1.11328 14.8438H17.4414C18.0562 14.8438 18.5547 14.3453 18.5547 13.7305V10.7617C18.5547 10.4367 18.4126 10.128 18.1659 9.91644L13.3594 5.79656V1.11328C13.3594 0.498453 12.8609 0 12.2461 0H6.30859C5.69377 0 5.19531 0.498453 5.19531 1.11328V5.79656L0.388758 9.91644C0.142055 10.128 0 10.4367 0 10.7617V13.7305C0 14.3453 0.498453 14.8438 1.11328 14.8438ZM7.42188 2.22656H11.1328V5.19531H7.42188V2.22656ZM2.22656 11.2738L6.72043 7.42188H11.8343L16.3281 11.2738V12.6172H2.22656V11.2738Z" fill="white"/>
    <path d="M26.4961 11.2812C25.8813 11.2812 25.3828 11.7797 25.3828 12.3945V14.6211C25.3828 15.2359 25.8813 15.7344 26.4961 15.7344C27.1109 15.7344 27.6094 15.2359 27.6094 14.6211V12.3945C27.6094 11.7797 27.1109 11.2812 26.4961 11.2812Z" fill="white"/>
    <path d="M26.4961 22.4141C25.8813 22.4141 25.3828 22.9125 25.3828 23.5273V25.7539C25.3828 26.3687 25.8813 26.8672 26.4961 26.8672C27.1109 26.8672 27.6094 26.3687 27.6094 25.7539V23.5273C27.6094 22.9125 27.1109 22.4141 26.4961 22.4141Z" fill="white"/>
    <path d="M11.6523 27.9805C11.0375 27.9805 10.5391 28.4789 10.5391 29.0938V31.3203C10.5391 31.9351 11.0375 32.4336 11.6523 32.4336C12.2672 32.4336 12.7656 31.9351 12.7656 31.3203V29.0938C12.7656 28.4789 12.2672 27.9805 11.6523 27.9805Z" fill="white"/>
</svg>
