<svg width="38" height="38" viewBox="0 0 38 38" fill="none" xmlns="http://www.w3.org/2000/svg">
    <path d="M36.8867 23.4531C35.9441 23.4531 26.5618 23.4531 24.6406 23.4531V21.2266H32.4336C33.0484 21.2266 33.5469 20.7281 33.5469 20.1133V4.52734C33.5469 3.91252 33.0484 3.41406 32.4336 3.41406H5.56641C4.95158 3.41406 4.45312 3.91252 4.45312 4.52734V20.1133C4.45312 20.7281 4.95158 21.2266 5.56641 21.2266H13.3594V23.4531C12.2231 23.4531 2.65399 23.4531 1.11328 23.4531C0.498453 23.4531 0 23.9516 0 24.5664V33.4727C0 34.0875 0.498453 34.5859 1.11328 34.5859H10.0195C10.6344 34.5859 11.1328 34.0875 11.1328 33.4727V30.1328H26.8672V33.4727C26.8672 34.0875 27.3656 34.5859 27.9805 34.5859H36.8867C37.5015 34.5859 38 34.0875 38 33.4727V24.5664C38 23.9516 37.5015 23.4531 36.8867 23.4531ZM6.67969 5.64062H31.3203V19H6.67969V5.64062ZM15.5859 21.2266H22.4141V23.4531H15.5859V21.2266ZM8.90625 32.3594H2.22656V25.6797H8.90625V32.3594ZM11.1328 27.9062V25.6797H26.8672V27.9062H11.1328ZM35.7734 32.3594H29.0938V25.6797H35.7734V32.3594Z" fill="white"/>
    <path d="M5.56641 30.1328C6.18125 30.1328 6.67969 29.6344 6.67969 29.0195C6.67969 28.4047 6.18125 27.9062 5.56641 27.9062C4.95156 27.9062 4.45312 28.4047 4.45312 29.0195C4.45312 29.6344 4.95156 30.1328 5.56641 30.1328Z" fill="white"/>
    <path d="M32.4336 30.1328C33.0484 30.1328 33.5469 29.6344 33.5469 29.0195C33.5469 28.4047 33.0484 27.9062 32.4336 27.9062C31.8187 27.9062 31.3203 28.4047 31.3203 29.0195C31.3203 29.6344 31.8187 30.1328 32.4336 30.1328Z" fill="white"/>
</svg>
