<svg width="38" height="38" viewBox="0 0 38 38" fill="none" xmlns="http://www.w3.org/2000/svg">
    <path d="M34.6602 13.4336C33.4656 13.4336 32.3332 13.7041 31.3203 14.1865V12.3203C31.3203 8.02327 27.8244 4.52734 23.5273 4.52734H14.4727C10.1756 4.52734 6.67969 8.02327 6.67969 12.3203V14.1865C5.66682 13.7041 4.53439 13.4336 3.33984 13.4336C1.49825 13.4336 0 14.9318 0 16.7734C0 18.615 1.49825 20.1133 3.33984 20.1133C3.95371 20.1133 4.45312 20.6127 4.45312 21.2266V30.1328C4.45312 30.7476 4.95158 31.2461 5.56641 31.2461H6.67969V32.3594C6.67969 32.9742 7.17814 33.4727 7.79297 33.4727C8.4078 33.4727 8.90625 32.9742 8.90625 32.3594V31.2461H29.0938V32.3594C29.0938 32.9742 29.5922 33.4727 30.207 33.4727C30.8219 33.4727 31.3203 32.9742 31.3203 32.3594V31.2461H32.4336C33.0484 31.2461 33.5469 30.7476 33.5469 30.1328V21.2266C33.5469 20.6127 34.0463 20.1133 34.6602 20.1133C36.5017 20.1133 38 18.615 38 16.7734C38 14.9318 36.5017 13.4336 34.6602 13.4336ZM14.4727 6.75391H23.5273C26.5967 6.75391 29.0938 9.251 29.0938 12.3203V15.7786C28.4935 16.3919 27.9932 17.1033 27.6201 17.8867H10.3799C10.0067 17.1033 9.50653 16.3919 8.90625 15.7786V12.3203C8.90625 9.251 11.4033 6.75391 14.4727 6.75391ZM26.8672 21.2266V22.3398H11.1328V21.2266C11.1328 20.8486 11.1052 20.477 11.053 20.1133H26.947C26.8948 20.477 26.8672 20.8486 26.8672 21.2266ZM11.1328 24.5664H26.8672V29.0195H11.1328V24.5664ZM3.33984 17.8867C2.72598 17.8867 2.22656 17.3873 2.22656 16.7734C2.22656 16.1596 2.72598 15.6602 3.33984 15.6602C6.40916 15.6602 8.90625 18.1572 8.90625 21.2266V29.0195H6.67969V21.2266C6.67969 19.385 5.18143 17.8867 3.33984 17.8867ZM34.6602 17.8867C32.8186 17.8867 31.3203 19.385 31.3203 21.2266V29.0195H29.0938V21.2266C29.0938 18.1572 31.5908 15.6602 34.6602 15.6602C35.274 15.6602 35.7734 16.1596 35.7734 16.7734C35.7734 17.3873 35.274 17.8867 34.6602 17.8867Z" fill="white"/>
</svg>
