<svg width="38" height="38" viewBox="0 0 38 38" fill="none" xmlns="http://www.w3.org/2000/svg">
    <path d="M28.653 0H9.34692C7.48574 0 5.97153 1.51429 5.97153 3.37547V32.1842C5.97153 34.0454 7.48574 35.5597 9.34692 35.5597H9.76618V36.8768C9.76618 37.4971 10.2691 38 10.8893 38C11.5096 38 12.0125 37.4971 12.0125 36.8768V35.5597H25.988V36.8768C25.988 37.4971 26.4909 38 27.1111 38C27.7314 38 28.2343 37.4971 28.2343 36.8768V35.5597H28.6531C30.5143 35.5597 32.0285 34.0454 32.0285 32.1842V3.37547C32.0284 1.51429 30.5142 0 28.653 0ZM8.21776 3.37547C8.21776 2.75285 8.7243 2.24623 9.34692 2.24623H17.877V26.4876H8.21776V3.37547ZM29.7822 32.1842C29.7822 32.8068 29.2756 33.3135 28.653 33.3135H9.34692C8.7243 33.3135 8.21776 32.8068 8.21776 32.1842V28.7339H29.7821V32.1842H29.7822ZM29.7822 26.4876H20.1233V2.2463H28.653C29.2756 2.2463 29.7822 2.75292 29.7822 3.37554V26.4876Z" fill="white"/>
    <path d="M16.018 11.686C15.3978 11.686 14.8949 12.1889 14.8949 12.8092V15.9249C14.8949 16.5451 15.3977 17.048 16.018 17.048C16.6383 17.048 17.1412 16.5451 17.1412 15.9249V12.8092C17.1412 12.1889 16.6383 11.686 16.018 11.686Z" fill="white"/>
    <path d="M21.9825 11.686C21.3623 11.686 20.8593 12.1889 20.8593 12.8092V15.9249C20.8593 16.5452 21.3623 17.0481 21.9825 17.0481C22.6027 17.0481 23.1056 16.5452 23.1056 15.925V12.8092C23.1056 12.1889 22.6027 11.686 21.9825 11.686Z" fill="white"/>
    <path d="M20.2729 29.9005H17.7271C17.1068 29.9005 16.6039 30.4034 16.6039 31.0237C16.6039 31.6439 17.1068 32.1468 17.7271 32.1468H20.2729C20.8931 32.1468 21.396 31.6439 21.396 31.0237C21.3959 30.4033 20.8931 29.9005 20.2729 29.9005Z" fill="white"/>
</svg>
