<svg width="18" height="18" viewBox="0 0 18 18" fill="none" xmlns="http://www.w3.org/2000/svg">
    <path fill-rule="evenodd" clip-rule="evenodd" d="M9.00081 0.466675C6.68327 0.466675 6.39243 0.476808 5.48219 0.518231C4.57374 0.559831 3.95364 0.703655 3.41106 0.914679C2.84981 1.13264 2.37372 1.4242 1.8994 1.89869C1.42473 2.37301 1.13317 2.8491 0.914502 3.41017C0.702944 3.95293 0.558942 4.57321 0.518053 5.4813C0.477342 6.39154 0.466675 6.68256 0.466675 9.0001C0.466675 11.3176 0.476986 11.6076 0.518231 12.5178C0.560009 13.4263 0.703833 14.0464 0.914679 14.589C1.13282 15.1502 1.42437 15.6263 1.89887 16.1006C2.37301 16.5753 2.8491 16.8676 3.40999 17.0855C3.95293 17.2965 4.57321 17.4404 5.48148 17.482C6.39171 17.5234 6.68238 17.5335 8.99974 17.5335C11.3175 17.5335 11.6074 17.5234 12.5176 17.482C13.4261 17.4404 14.0469 17.2965 14.5898 17.0855C15.1509 16.8676 15.6263 16.5753 16.1004 16.1006C16.5751 15.6263 16.8667 15.1502 17.0853 14.5891C17.2951 14.0464 17.4391 13.4261 17.4818 12.518C17.5227 11.6078 17.5333 11.3176 17.5333 9.0001C17.5333 6.68256 17.5227 6.39171 17.4818 5.48148C17.4391 4.57303 17.2951 3.95293 17.0853 3.41035C16.8667 2.8491 16.5751 2.37301 16.1004 1.89869C15.6258 1.42402 15.1511 1.13246 14.5893 0.914679C14.0453 0.703655 13.4249 0.559831 12.5164 0.518231C11.6062 0.476808 11.3164 0.466675 8.99814 0.466675H9.00081ZM8.23544 2.0046C8.46264 2.00424 8.71616 2.0046 9.00096 2.0046C11.2794 2.0046 11.5494 2.01278 12.4492 2.05367C13.2812 2.09171 13.7327 2.23073 14.0335 2.34754C14.4318 2.5022 14.7157 2.6871 15.0142 2.98576C15.3128 3.28443 15.4977 3.56888 15.6528 3.96711C15.7696 4.26756 15.9088 4.71912 15.9466 5.55113C15.9875 6.45069 15.9964 6.72092 15.9964 8.99827C15.9964 11.2756 15.9875 11.5459 15.9466 12.4454C15.9086 13.2774 15.7696 13.729 15.6528 14.0294C15.4981 14.4277 15.3128 14.7112 15.0142 15.0097C14.7155 15.3084 14.4319 15.4933 14.0335 15.6479C13.7331 15.7653 13.2812 15.9039 12.4492 15.942C11.5496 15.9829 11.2794 15.9918 9.00096 15.9918C6.72236 15.9918 6.45231 15.9829 5.55274 15.942C4.72074 15.9036 4.26918 15.7646 3.9682 15.6478C3.56997 15.4931 3.28552 15.3082 2.98685 15.0095C2.68818 14.7109 2.50329 14.4271 2.34827 14.0287C2.23147 13.7283 2.09226 13.2767 2.0544 12.4447C2.01351 11.5451 2.00533 11.2749 2.00533 8.99614C2.00533 6.71736 2.01351 6.44856 2.0544 5.54899C2.09244 4.71698 2.23147 4.26542 2.34827 3.96462C2.50294 3.56639 2.68818 3.28195 2.98685 2.98328C3.28552 2.68461 3.56997 2.49972 3.9682 2.34469C4.269 2.22736 4.72074 2.08869 5.55274 2.05047C6.33995 2.01491 6.64502 2.00424 8.23544 2.00247V2.0046ZM13.556 3.42144C12.9907 3.42144 12.532 3.87958 12.532 4.4451C12.532 5.01044 12.9907 5.46911 13.556 5.46911C14.1214 5.46911 14.58 5.01044 14.58 4.4451C14.58 3.87976 14.1214 3.42109 13.556 3.42109V3.42144ZM9.00088 4.61796C6.58077 4.61796 4.61861 6.58011 4.61861 9.00023C4.61861 11.4203 6.58077 13.3816 9.00088 13.3816C11.421 13.3816 13.3824 11.4203 13.3824 9.00023C13.3824 6.58011 11.4208 4.61796 9.0007 4.61796H9.00088ZM9.00098 6.15572C10.5718 6.15572 11.8455 7.42916 11.8455 9.0002C11.8455 10.5711 10.5718 11.8447 9.00098 11.8447C7.42994 11.8447 6.1565 10.5711 6.1565 9.0002C6.1565 7.42916 7.42994 6.15572 9.00098 6.15572Z" fill="white"/>
</svg>
