<svg width="25" height="24" viewBox="0 0 25 24" fill="none" xmlns="http://www.w3.org/2000/svg">
    <path d="M15.5672 14H14.7793L14.5001 13.73C15.4775 12.59 16.0659 11.11 16.0659 9.5C16.0659 5.91 13.1636 3 9.58312 3C6.00263 3 3.10034 5.91 3.10034 9.5C3.10034 13.09 6.00263 16 9.58312 16C11.1889 16 12.6649 15.41 13.8019 14.43L14.0712 14.71V15.5L19.058 20.49L20.544 19L15.5672 14ZM9.58312 14C7.09972 14 5.09504 11.99 5.09504 9.5C5.09504 7.01 7.09972 5 9.58312 5C12.0665 5 14.0712 7.01 14.0712 9.5C14.0712 11.99 12.0665 14 9.58312 14Z" fill="#A0A0A0"/>
</svg>
